<?xml version="1.0" encoding="UTF-8" standalone="no"?>
<svg
   xmlns:dc="http://purl.org/dc/elements/1.1/"
   xmlns:cc="http://creativecommons.org/ns#"
   xmlns:rdf="http://www.w3.org/1999/02/22-rdf-syntax-ns#"
   xmlns:svg="http://www.w3.org/2000/svg"
   xmlns="http://www.w3.org/2000/svg"
   xmlns:sodipodi="http://sodipodi.sourceforge.net/DTD/sodipodi-0.dtd"
   xmlns:inkscape="http://www.inkscape.org/namespaces/inkscape"
   width="1091.6482mm"
   height="404.4046mm"
   viewBox="0 0 1091.6482 404.4046"
   version="1.1"
   id="svg8"
   inkscape:version="1.0.2 (e86c870879, 2021-01-15, custom)"
   sodipodi:docname="django-kesha-logo.svg"
   inkscape:export-filename="/home/olf/Projects/django-kesha/assets/django-kesha-logo.png"
   inkscape:export-xdpi="46.541012"
   inkscape:export-ydpi="46.541012">
  <defs
     id="defs2" />
  <sodipodi:namedview
     id="base"
     pagecolor="#ffffff"
     bordercolor="#666666"
     borderopacity="1.0"
     inkscape:pageopacity="0.0"
     inkscape:pageshadow="2"
     inkscape:zoom="0.24748737"
     inkscape:cx="2080.2299"
     inkscape:cy="309.79087"
     inkscape:document-units="mm"
     inkscape:current-layer="layer1"
     inkscape:document-rotation="0"
     showgrid="false"
     fit-margin-top="0"
     fit-margin-left="0"
     fit-margin-right="0"
     fit-margin-bottom="0"
     inkscape:window-width="1920"
     inkscape:window-height="1054"
     inkscape:window-x="0"
     inkscape:window-y="0"
     inkscape:window-maximized="1" />
  <metadata
     id="metadata5">
    <rdf:RDF>
      <cc:Work
         rdf:about="">
        <dc:format>image/svg+xml</dc:format>
        <dc:type
           rdf:resource="http://purl.org/dc/dcmitype/StillImage" />
        <dc:title></dc:title>
      </cc:Work>
    </rdf:RDF>
  </metadata>
  <g
     inkscape:label="Layer 1"
     inkscape:groupmode="layer"
     id="layer1"
     transform="translate(355.84647,-25.574409)">
    <g
       id="g1169">
      <path
         id="rect982"
         style="fill:#f4e3d7;stroke-width:0.843931"
         d="M -355.84647,25.574409 H 735.80173 V 429.97901 h -1091.6482 z" />
      <g
         id="g1152">
        <g
           id="g1121">
          <path
             d="M -21.203857,310.19901 H 10.54859 V 294.57085 L -33.359091,240.49246 9.3082601,188.64667 H -31.126497 l -24.062401,30.76018 v -81.61371 h -35.96957 v 172.40587 h 35.96957 V 264.3068 Z"
             style="font-size:248.066px;line-height:0;font-family:'Delicious Heavy';-inkscape-font-specification:'Delicious Heavy, ';letter-spacing:0px;word-spacing:0px;fill:#165044;stroke-width:15.504"
             id="path1087" />
          <path
             d="m 124.41057,252.64769 c 0,-6.69778 -0.24806,-13.14749 -0.49613,-19.84528 -0.7442,-26.04692 -22.07787,-47.87673 -48.372867,-47.87673 -34.481173,0 -58.047443,28.52759 -58.047443,61.76843 0,33.24084 15.380092,67.47395 53.582255,67.47395 15.132026,0 33.985045,-8.18618 45.892205,-18.10882 L 106.54982,273.7333 c -9.17844,6.69779 -23.070135,10.66684 -34.233105,10.66684 -14.139762,0 -18.853016,-16.37235 -18.853016,-27.78339 0,-1.24033 0,-2.72873 0.248066,-3.96906 z M 90.673599,229.82562 H 56.192425 c 0.992264,-8.68231 7.44198,-21.08561 17.612686,-21.08561 11.16297,0 16.620422,11.41104 16.868488,21.08561 z"
             style="font-size:248.066px;line-height:0;font-family:'Delicious Heavy';-inkscape-font-specification:'Delicious Heavy, ';letter-spacing:0px;word-spacing:0px;fill:#165044;stroke-width:15.504"
             id="path1089" />
          <path
             d="M -27.522125,304.30103 H 4.2303222 V 288.67287 L -39.677359,234.59448 2.9899923,182.74869 H -37.444765 l -24.062401,30.76018 v -81.61371 h -35.969569 v 172.40587 h 35.969569 v -45.89221 z"
             style="font-size:248.066px;line-height:0;font-family:'Delicious Heavy';-inkscape-font-specification:'Delicious Heavy, ';letter-spacing:0px;word-spacing:0px;fill:#37c8ab;stroke-width:15.504"
             id="path1092" />
          <path
             d="m 118.09231,246.74971 c 0,-6.69778 -0.24807,-13.14749 -0.49614,-19.84527 -0.74419,-26.04693 -22.07787,-47.87674 -48.372865,-47.87674 -34.481173,0 -58.047443,28.52759 -58.047443,61.76843 0,33.24084 15.380092,67.47395 53.582255,67.47395 15.132026,0 33.985041,-8.18618 45.892213,-18.10882 l -10.41878,-22.32594 c -9.178437,6.69779 -23.070133,10.66684 -34.233103,10.66684 -14.139762,0 -18.853015,-16.37235 -18.853015,-27.78339 0,-1.24033 0,-2.72873 0.248066,-3.96906 z M 84.355331,223.92764 H 49.874158 c 0.992263,-8.68231 7.441979,-21.08561 17.612685,-21.08561 11.16297,0 16.620422,11.41104 16.868488,21.08561 z"
             style="font-size:248.066px;line-height:0;font-family:'Delicious Heavy';-inkscape-font-specification:'Delicious Heavy, ';letter-spacing:0px;word-spacing:0px;fill:#37c8ab;stroke-width:15.504"
             id="path1094" />
        </g>
        <g
           id="g1137">
          <path
             d="m 194.1158,172.06151 -2.01909,31.44017 c -5.4804,-3.74974 -10.67236,-9.51858 -10.67236,-16.72963 0,-7.49949 5.76884,-13.55677 12.69145,-14.71054 z m 4.90351,117.39589 2.30754,-32.01706 c 4.32663,3.4613 10.09547,8.65326 10.09547,14.71054 0,8.36481 -4.32663,14.99898 -12.40301,17.30652 z m 54.80398,-17.01808 c 0,-25.09445 -14.4221,-38.93967 -32.88238,-51.05423 0,0 -10.67236,-7.21105 -16.4412,-10.38391 l 2.59598,-38.07435 c 6.92261,2.0191 14.99898,6.63417 19.9025,12.11457 l 23.94068,-21.34471 c -9.23014,-12.40301 -26.24822,-22.49847 -41.2472,-25.95978 l 1.15377,-16.15275 -12.97989,-1.15377 -1.15377,15.86431 c -31.44018,-0.28844 -57.39996,18.74873 -57.39996,51.63112 0,25.09445 15.86431,39.51655 34.61304,51.91955 0,0 9.80703,6.92261 14.99899,9.80703 l -2.88442,39.51655 c -8.07638,-2.30753 -17.30652,-7.78793 -24.22913,-12.97989 l -19.03717,29.99797 c 10.67235,9.23015 26.8251,17.30652 40.67032,19.61406 l -1.15377,16.72963 12.97989,1.15377 1.15377,-17.01808 c 30.57485,-1.73065 57.39995,-21.63315 57.39995,-54.22709 z"
             style="font-size:288.442px;line-height:0;font-family:'Delicious Heavy';-inkscape-font-specification:'Delicious Heavy, ';letter-spacing:0px;word-spacing:0px;fill:#504416;stroke-width:18.0276"
             id="path1097" />
          <path
             d="m 185.57657,163.50005 -2.01909,31.44017 c -5.4804,-3.74974 -10.67236,-9.51858 -10.67236,-16.72963 0,-7.49949 5.76884,-13.55678 12.69145,-14.71054 z m 4.90351,117.39588 2.30754,-32.01706 c 4.32663,3.46131 10.09547,8.65326 10.09547,14.71054 0,8.36482 -4.32663,14.99899 -12.40301,17.30652 z m 54.80398,-17.01807 c 0,-25.09446 -14.4221,-38.93967 -32.88238,-51.05423 0,0 -10.67236,-7.21105 -16.4412,-10.38392 l 2.59598,-38.07434 c 6.92261,2.0191 14.99898,6.63417 19.9025,12.11456 l 23.94068,-21.3447 c -9.23014,-12.40301 -26.24822,-22.49848 -41.2472,-25.95978 l 1.15377,-16.15275 -12.97989,-1.15377 -1.15377,15.86431 c -31.44018,-0.28844 -57.39996,18.74873 -57.39996,51.63111 0,25.09446 15.86431,39.51656 34.61304,51.91956 0,0 9.80703,6.92261 14.99899,9.80703 l -2.88442,39.51655 c -8.07638,-2.30753 -17.30652,-7.78793 -24.22913,-12.97989 l -19.03717,29.99797 c 10.67235,9.23014 26.8251,17.30652 40.67032,19.61405 l -1.15377,16.72964 12.97989,1.15377 1.15377,-17.01808 c 30.57485,-1.73065 57.39995,-21.63315 57.39995,-54.22709 z"
             style="font-size:288.442px;line-height:0;font-family:'Delicious Heavy';-inkscape-font-specification:'Delicious Heavy, ';letter-spacing:0px;word-spacing:0px;fill:#c8ab37;stroke-width:18.0276"
             id="path1100" />
        </g>
        <g
           id="g1131">
          <path
             d="m 339.76232,319.20544 h 30.47654 v -74.40478 c 0,-15.34336 -4.83421,-31.73763 -31.94782,-31.73763 -8.40732,0 -17.44519,6.09531 -23.96086,10.71933 v -50.6541 h -30.47654 v 146.07718 h 30.47654 v -72.51313 c 5.46476,-3.36293 10.71933,-8.40732 20.17757,-8.40732 3.99347,0 5.25457,2.31201 5.25457,6.51567 z"
             style="font-size:210.183px;line-height:0;font-family:'Delicious Heavy';-inkscape-font-specification:'Delicious Heavy, ';letter-spacing:0px;word-spacing:0px;fill:#28220b;stroke-width:13.1364"
             id="path1103" />
          <path
             d="m 477.43199,317.94435 -4.62402,-14.29245 c -0.84073,0.42037 -1.89165,0.84073 -2.94256,0.84073 -2.5222,0 -2.5222,-3.57311 -2.5222,-5.46475 v -54.85777 c 0,-21.85903 -16.81464,-31.10708 -36.78202,-31.10708 -13.87208,0 -29.21544,7.3564 -39.09404,16.81464 l 10.71933,17.23501 c 7.56659,-5.88513 15.76373,-9.66842 25.43214,-9.66842 4.83421,0 11.34989,2.73238 11.34989,8.40732 v 4.41384 l -46.24026,18.4961 c -3.57311,6.51568 -7.56659,14.923 -7.56659,22.2794 0,21.0183 11.56006,31.31727 32.158,31.31727 10.50915,0 21.85903,-6.30549 25.64232,-16.60446 1.2611,9.45824 7.35641,16.60446 18.28592,16.60446 5.67495,0 11.1397,-1.89165 16.18409,-4.41384 z m -37.83293,-47.71154 v 5.67494 c 0,10.92951 -5.46476,22.06921 -17.65538,22.06921 -4.20366,0 -8.19713,-2.94256 -8.19713,-7.3564 0,-3.36293 0.84073,-7.35641 1.89164,-10.50915 z"
             style="font-size:210.183px;line-height:0;font-family:'Delicious Heavy';-inkscape-font-specification:'Delicious Heavy, ';letter-spacing:0px;word-spacing:0px;fill:#28220b;stroke-width:13.1364"
             id="path1105" />
          <path
             d="m 331.78609,312.05356 h 30.47654 v -74.40478 c 0,-15.34336 -4.83421,-31.73764 -31.94782,-31.73764 -8.40732,0 -17.44519,6.09531 -23.96086,10.71934 v -50.65411 h -30.47653 v 146.07719 h 30.47653 v -72.51314 c 5.46476,-3.36292 10.71933,-8.40732 20.17757,-8.40732 3.99348,0 5.25457,2.31202 5.25457,6.51568 z"
             style="font-size:210.183px;line-height:0;font-family:'Delicious Heavy';-inkscape-font-specification:'Delicious Heavy, ';letter-spacing:0px;word-spacing:0px;fill:#504416;stroke-width:13.1364"
             id="path1108" />
          <path
             d="m 469.45577,310.79246 -4.62403,-14.29244 c -0.84073,0.42036 -1.89164,0.84073 -2.94256,0.84073 -2.5222,0 -2.5222,-3.57311 -2.5222,-5.46476 v -54.85776 c 0,-21.85903 -16.81464,-31.10709 -36.78202,-31.10709 -13.87208,0 -29.21544,7.35641 -39.09404,16.81464 l 10.71933,17.23501 c 7.56659,-5.88512 15.76373,-9.66842 25.43215,-9.66842 4.83421,0 11.34988,2.73238 11.34988,8.40732 v 4.41384 l -46.24026,18.49611 c -3.57311,6.51567 -7.56659,14.92299 -7.56659,22.2794 0,21.0183 11.56007,31.31726 32.158,31.31726 10.50915,0 21.85903,-6.30549 25.64233,-16.60445 1.26109,9.45823 7.3564,16.60445 18.28592,16.60445 5.67494,0 11.1397,-1.89164 16.18409,-4.41384 z m -37.83294,-47.71154 v 5.67494 c 0,10.92952 -5.46476,22.06922 -17.65537,22.06922 -4.20366,0 -8.19714,-2.94257 -8.19714,-7.35641 0,-3.36293 0.84073,-7.3564 1.89165,-10.50915 z"
             style="font-size:210.183px;line-height:0;font-family:'Delicious Heavy';-inkscape-font-specification:'Delicious Heavy, ';letter-spacing:0px;word-spacing:0px;fill:#504416;stroke-width:13.1364"
             id="path1110" />
        </g>
      </g>
    </g>
  </g>
</svg>
